<?xml version="1.0" encoding="UTF-8" standalone="no"?>
<svg xmlns="http://www.w3.org/2000/svg" xml:space="preserve" width="800" height="800" viewBox="0 0 504.123 504.123"><circle cx="252.062" cy="252.062" r="252.062" style="fill:#99a8c1"/><path d="M73.83 73.823c98.43-98.43 258.032-98.43 356.462 0 98.43 98.438 98.446 258.032 0 356.478" style="fill:#84919b"/><path d="M358.4 216.615h-31.508v-86.646h78.77v31.508H358.4z"/><path d="M295.385 263.877h-31.508v-78.769h86.646v31.507h-55.138z"/><path d="M240.246 319.015h-31.508v-86.646h86.647v31.508h-55.139z"/><path d="M185.108 382.031H98.462v-31.508H153.6v-63.015h86.646v31.507h-55.138z"/><path d="M323.986 321.843c3.088 3.08 7.018 3.08 10.098 0l47.947-48.987v30.562c0 6.522 5.293 11.815 11.815 11.815s11.815-5.293 11.815-11.815v-63.173h-63.244c-6.514 0-11.815 5.293-11.815 11.815s5.301 11.815 11.815 11.815h30.586l-49.018 47.915c-3.071 3.082-3.071 6.981.001 10.053z" style="fill:#1d2321"/><circle cx="309.335" cy="336.502" r="7.136" style="fill:#84919b"/><circle cx="287.429" cy="358.4" r="7.136" style="fill:#84919b"/><circle cx="265.531" cy="380.314" r="7.136" style="fill:#84919b"/></svg>